<svg preserveAspectRatio="none" overflow="visible" style="display: block;" width="23.32" height="25.9336" viewBox="0 0 23.32 25.9336" fill="none" xmlns="http://www.w3.org/2000/svg">
<g id="Group">
<path id="Vector" d="M3.73135 5.58986C3.05135 3.91986 4.18135 1.93986 6.00135 1.78986C6.32135 1.75986 6.65135 1.82986 6.96135 1.80986C7.75135 -0.0201366 10.0913 -0.580136 11.6413 0.689864C11.9213 0.559864 12.1613 0.349863 12.4513 0.229863C14.0013 -0.400137 15.6913 0.309863 16.3613 1.80986C16.6913 1.82986 17.0313 1.75986 17.3613 1.78986C19.1013 1.94986 20.2913 3.91986 19.5913 5.52986L19.6113 5.58986C20.7313 5.82986 21.6913 6.57986 22.1513 7.62986C22.4113 8.23986 22.5113 8.90986 22.4113 9.56986C22.3713 9.84986 22.2513 10.1099 22.2213 10.3799C23.3813 11.4899 23.5213 13.2699 22.6613 14.6099C22.7713 14.8699 22.9413 15.0999 23.0513 15.3599C23.7313 17.0599 23.0813 18.8799 21.5413 19.8199C21.6513 21.7199 20.6313 23.3299 18.8113 23.9199C18.6713 23.9699 18.3513 23.9899 18.2513 24.0499C18.2013 24.0799 17.9113 24.5299 17.8213 24.6399C16.3013 26.3799 13.5813 26.3499 12.0513 24.6399C11.9813 24.5599 11.7113 24.1299 11.6413 24.1499C10.2613 26.3199 7.12135 26.5599 5.44135 24.5799C5.35135 24.4799 5.13135 24.0899 5.07135 24.0499C4.98135 23.9899 4.51135 23.9199 4.36135 23.8599C2.66135 23.2799 1.66135 21.5799 1.78135 19.8099C0.251348 18.8899 -0.418652 17.0299 0.271348 15.3499C0.381348 15.0899 0.561348 14.8599 0.661348 14.5999C-0.208652 13.2599 -0.0486518 11.4899 1.10135 10.3699C1.06135 10.0899 0.951348 9.83986 0.911348 9.55986C0.631348 7.69986 1.89135 5.93986 3.73135 5.57986V5.58986ZM11.0913 6.61986V1.72986C10.1813 0.709864 8.41135 1.03986 7.98135 2.33986V2.38986C8.33135 2.60986 8.85135 3.21986 8.80135 3.63986C8.75135 4.05986 8.17135 4.26986 7.84135 3.94986C7.57135 3.67986 7.58135 3.40986 7.14135 3.13986C5.73135 2.27986 4.10135 3.79986 4.84135 5.26986C5.03135 5.63986 5.54135 5.86986 5.31135 6.35986C5.08135 6.82986 4.67135 6.62986 4.28135 6.63986C1.50135 6.76986 1.19135 10.8399 3.93135 11.3699C4.31135 11.4399 4.74135 11.3299 4.92135 11.7699C5.01135 11.9799 4.95135 12.2199 4.79135 12.3899C4.49135 12.6899 3.56135 12.4499 3.19135 12.3199C2.63135 12.1199 2.16135 11.7699 1.76135 11.3399C1.20135 11.9599 1.10135 12.8999 1.45135 13.6599C1.65135 14.0999 2.23135 14.4199 1.90135 14.9499C1.59135 15.4399 1.30135 15.5999 1.18135 16.2799C0.661348 19.2599 4.97135 20.2299 5.85135 17.5199C6.02135 16.9999 5.85135 15.9999 6.70135 16.1799C7.41135 16.3299 7.01135 17.6699 6.82135 18.1199C6.69135 18.4199 6.49135 18.6599 6.36135 18.9499C7.42135 19.1799 8.41135 20.0299 8.86135 21.0099C9.01135 21.3399 9.30135 22.1599 9.18135 22.4899C9.01135 22.9799 8.31135 22.9999 8.13135 22.5199C8.06135 22.3399 8.05135 22.0799 7.99135 21.8799C7.66135 20.7599 6.50135 19.8699 5.32135 19.8899C5.06135 19.8899 4.73135 20.0699 4.46135 20.1399C3.94135 20.2699 3.45135 20.2799 2.92135 20.2199C2.90135 21.3699 3.70135 22.4799 4.80135 22.8199C5.07135 22.8999 5.52135 22.9099 5.74135 23.0299C5.93135 23.1399 6.14135 23.6299 6.32135 23.8399C7.86135 25.6899 10.8613 24.7299 11.1113 22.3699V8.66986C10.8213 7.75986 10.0113 6.97986 9.07135 6.77986C8.77135 6.71986 8.29135 6.75986 8.08135 6.53986C7.76135 6.21986 7.96135 5.64986 8.39135 5.57986C8.91135 5.49986 9.88135 5.81986 10.3413 6.07986L11.1013 6.59986L11.0913 6.61986ZM12.2313 1.72986V5.30986C12.6613 5.11986 13.6413 4.73986 14.0213 5.11986C14.3413 5.43986 14.1613 5.99986 13.7213 6.07986C13.5913 6.09986 13.4713 6.07986 13.3413 6.10986C12.8913 6.19986 12.4113 6.47986 12.2413 6.92986V22.3899C12.4913 24.7499 15.4713 25.7099 17.0313 23.8599C17.2213 23.6299 17.4113 23.1499 17.6313 23.0299C17.8313 22.9199 18.2713 22.9199 18.5413 22.8399C19.6413 22.4999 20.4413 21.3999 20.4213 20.2399C19.6213 20.3599 18.4513 20.2099 17.8113 19.6899C17.5113 19.4499 17.4413 18.9999 17.7713 18.7499C18.2013 18.4299 18.5513 18.8599 18.9413 18.9999C21.0113 19.7499 22.9013 17.6199 21.9613 15.6599C21.8313 15.3899 21.4013 14.9799 21.3713 14.7799C21.2913 14.2899 21.6713 14.1499 21.8713 13.7699C22.2713 12.9899 22.1713 12.0199 21.6013 11.3699C21.1313 11.8899 20.5213 12.2999 19.8313 12.4599C19.5113 12.5399 18.8213 12.6699 18.5713 12.4199C18.2813 12.1299 18.3613 11.7399 18.6813 11.5199C19.0413 11.4199 19.4213 11.4399 19.7813 11.3099C22.1813 10.4699 21.6613 6.78986 19.0713 6.66986C18.6813 6.64986 18.2713 6.85986 18.0413 6.38986C17.8113 5.91986 18.3213 5.67986 18.5113 5.29986C19.3713 3.56986 17.0913 2.04986 15.8413 3.48986C15.6413 3.71986 15.5613 4.07986 15.2213 4.13986C14.9313 4.18986 14.6013 3.96986 14.5613 3.66986C14.5113 3.24986 15.0313 2.63986 15.3713 2.41986V2.36986C14.9413 1.05986 13.1813 0.739864 12.2713 1.75986L12.2313 1.72986Z" fill="#004E8B"/>
<path id="Vector_2" d="M6.85135 9.46986C6.49135 9.05986 6.83135 8.39986 7.38135 8.50986C7.60135 8.55986 8.05135 9.00986 8.21135 9.19986C9.06135 10.2199 9.24135 11.6799 8.76135 12.8999C9.08135 13.2699 9.41135 13.5999 9.67135 14.0399C9.85135 14.3499 10.2413 15.2199 10.2313 15.5599C10.2213 16.0899 9.52135 16.3199 9.21135 15.8899C9.07135 15.7099 9.01135 15.2799 8.91135 15.0399C8.74135 14.6199 8.45135 14.2099 8.12135 13.9099C7.54135 14.5299 6.76135 14.9799 5.91135 15.0899C5.44135 15.1499 4.48135 15.1099 4.08135 14.8399C3.76135 14.6299 3.77135 14.1099 4.08135 13.9099C4.41135 13.6999 4.76135 13.9499 5.10135 13.9799C7.33135 14.2199 8.78135 11.6299 7.33135 9.90986C7.20135 9.74986 6.97135 9.59986 6.85135 9.46986Z" fill="#004E8B"/>
<path id="Vector_3" d="M14.5913 8.88986C14.8313 8.64986 15.1013 8.46986 15.3813 8.26986C15.0513 7.63986 14.9913 6.48986 15.3713 5.87986C15.6913 5.36986 16.4813 5.61986 16.4113 6.26986C16.3913 6.42986 16.2713 6.61986 16.2513 6.80986C16.1113 7.99986 17.0813 8.89986 18.2413 8.63986C18.3713 8.60986 18.5113 8.52986 18.6513 8.50986C19.2013 8.44986 19.5113 9.15986 19.0513 9.51986C18.5013 9.94986 17.3213 9.83986 16.7113 9.56986C16.5613 9.49986 16.1413 9.17986 16.0413 9.20986C15.8513 9.25986 15.3813 9.64986 15.2413 9.80986C14.0413 11.1799 14.6713 13.4299 16.4513 13.8799C16.8813 13.9899 17.6913 13.8899 17.5913 14.6099C17.4913 15.3299 16.5713 15.0799 16.1213 14.9599C13.4613 14.2199 12.6113 10.8199 14.6013 8.89986L14.5913 8.88986Z" fill="#004E8B"/>
<path id="Vector_4" d="M14.5213 18.9399C13.9113 18.5899 13.3813 17.6799 13.3513 16.9799C13.3313 16.4999 13.8313 16.1899 14.2413 16.4599C14.5213 16.6399 14.4713 16.9899 14.5713 17.2799C14.6713 17.5699 14.9013 17.8799 15.1713 18.0299C15.7213 17.4499 16.4613 17.0199 17.2713 16.9099C17.8113 16.8299 19.3913 16.8099 19.0213 17.7599C18.8413 18.2299 18.3713 18.0299 18.0413 18.0099C16.2913 17.8599 14.9713 19.5199 15.5513 21.1999C15.7013 21.6399 16.2213 22.0299 16.0313 22.4999C15.8913 22.8499 15.3813 22.9099 15.1213 22.6599C14.5113 22.0799 14.2413 20.8899 14.3013 20.0799C14.3313 19.6899 14.4913 19.3399 14.5413 18.9599L14.5213 18.9399Z" fill="#004E8B"/>
</g>
</svg>
